<?xml version="1.0" encoding="UTF-8"?>
<svg width="24px" height="24px" viewBox="0 0 24 24" version="1.1" xmlns="http://www.w3.org/2000/svg" xmlns:xlink="http://www.w3.org/1999/xlink">
    <!-- Generator: Sketch 52.4 (67378) - http://www.bohemiancoding.com/sketch -->
    <title>center_icon_listarrow</title>
    <desc>Created with Sketch.</desc>
    <g id="用户端" stroke="none" stroke-width="1" fill="none" fill-rule="evenodd">
        <g id="编辑个人资料-有数据" transform="translate(-331.000000, -217.000000)" fill="#CDCDD7">
            <g id="kit/list2" transform="translate(0.000000, 199.000000)">
                <g id="listarrow" transform="translate(331.000000, 18.000000)">
                    <path d="M10.1904755,11.9863239 C11.438395,13.1335263 12.659216,14.2533723 13.8800369,15.373233 L15.7519235,17.0940071 C16.0232592,17.339832 16.0774564,17.6129984 15.8875622,17.8314817 C15.6705549,18.0773066 15.3992338,18.0500237 15.1279711,17.7768426 C13.228913,16.0834247 11.3841395,14.3626506 9.51219462,12.6692181 C9.40371284,12.5599398 9.29518732,12.4779737 9.1866618,12.3960516 C8.94249761,12.1775684 8.94249761,11.8224652 9.15954864,11.6312794 L13.5544458,7.61615943 C14.0699457,7.12450969 14.6125295,6.66014283 15.1279711,6.16849309 C15.3992338,5.92266822 15.724825,5.95002449 15.8875622,6.22313225 C16.0232592,6.44167423 15.9689892,6.68749911 15.724825,6.93332398 C14.3954785,8.16244834 13.0661174,9.391514 11.7096724,10.6206384 C11.221344,11.0303661 10.7330156,11.4947182 10.1904755,11.9863239" id="center_icon_listarrow" transform="translate(12.500000, 12.000000) scale(-1, 1) translate(-12.500000, -12.000000) "></path>
                </g>
            </g>
        </g>
    </g>
</svg>